<svg
   width="160"
   height="320"
   viewBox="0 0 42.333331 84.666662"
   version="1.1"
   id="FR"
   class="wheel"
   xmlns="http://www.w3.org/2000/svg"
   xmlns:svg="http://www.w3.org/2000/svg">
  <defs
     id="defs1" />
  <g
     id="g22">
    <g
       id="g111"
       transform="translate(-45.753972,-23.812503)">
      <rect
         style="fill:#3c3836;stroke-width:2.64156;stroke-linecap:round"
         id="rect102"
         width="26.45833"
         height="79.375"
         x="53.691467"
         y="26.458336" />
      <path
         style="color:#000000;fill:#665c54;stroke-linecap:square;-inkscape-stroke:none"
         d="m 65.59707,54.240238 v 1.322266 39.6875 1.322266 h 2.646484 v -1.322266 -39.6875 -1.322266 z"
         id="path103" />
      <rect
         style="fill:#a89984;stroke-width:3.13059;stroke-linecap:round"
         id="rect103"
         width="26.458332"
         height="18.52083"
         x="53.691467"
         y="26.458336" />
      <path
         style="fill:#fb4934;stroke-width:2.64583;stroke-linecap:round"
         d="m 53.69147,105.83333 -3e-6,-79.374994 -5.291664,5.291667 v 68.791657 z"
         id="path106" />
      <path
         style="color:#000000;fill:#cc241d;-inkscape-stroke:none"
         d="m 46.528917,29.879116 -2.08e-4,72.533644 1.871094,-1.8711 V 31.750003 Z"
         id="path107" />
      <path
         style="fill:#8ec07c;stroke-width:2.64583;stroke-linecap:round"
         d="m 80.149803,105.83333 3e-6,-79.374993 5.291665,5.291667 v 68.791656 z"
         id="path108" />
      <path
         style="fill:#689d6a;stroke-width:2.64583;stroke-linecap:round"
         d="m 87.31191,102.41211 3e-6,-72.532549 -1.870442,1.870443 -3e-6,68.791656 z"
         id="path109" />
      <path
         style="fill:#665c54;stroke-width:0.264583"
         d="m 46.52871,102.41276 1.871093,-1.8711 5.291667,5.29167 H 80.1498 l 5.291672,-5.29167 1.870438,1.87045 -6.066403,6.0664 -28.650394,6.5e-4 z"
         id="path110" />
      <path
         style="fill:#665c54;stroke-width:0.264583"
         d="m 46.52871,29.878907 1.871093,1.8711 5.291667,-5.29167 H 80.1498 l 5.291672,5.29167 1.870438,-1.87045 -6.066403,-6.0664 -28.650394,-6.5e-4 z"
         id="path111" />
      <rect
         style="fill:#665c54;stroke-width:0.187088"
         id="rect1"
         width="5.2916665"
         height="5.2916665"
         x="60.306053"
         y="37.041668" />
      <rect
         style="fill:#ebdbb2;fill-opacity:1;stroke-width:0.187088"
         id="rect2"
         width="5.2916665"
         height="5.2916665"
         x="68.243553"
         y="29.10417" />
      <rect
         style="fill:#665c54;fill-opacity:1;stroke-width:0.187088"
         id="rect3"
         width="5.2916665"
         height="5.2916665"
         x="60.306053"
         y="29.104168" />
      <rect
         style="fill:#665c54;stroke-width:0.187088"
         id="rect4"
         width="5.2916665"
         height="5.2916665"
         x="68.243553"
         y="37.041668" />
    </g>
  </g>
</svg>
